<svg width="434" height="87" viewBox="0 0 434 87" fill="#FBF8EF" xmlns="http://www.w3.org/2000/svg">
<path d="M25.7286 86.3164C15.3381 86.3164 6.41579 83.1541 1.44641 78.9753L0.655821 59.6624H4.60874C7.20637 73.78 14.3216 82.2506 25.7286 82.2506C35.6674 82.2506 41.6533 76.6035 41.6533 68.3589C41.6533 59.4366 36.6839 55.9354 22.4534 50.2884C10.1428 45.4319 1.44641 40.0108 1.44641 26.7967C1.44641 14.1474 11.0464 4.77332 26.2933 4.77332C35.4415 4.77332 43.6862 7.25801 49.3332 11.3239V28.152H45.6062C43.7991 15.6156 37.1356 8.83918 26.2933 8.83918C17.8228 8.83918 12.7405 14.1474 12.7405 21.6015C12.7405 29.9591 16.8063 33.2343 29.2298 38.0908C44.4768 44.1896 53.0603 49.9496 53.0603 63.2765C53.0603 78.1847 40.6368 86.3164 25.7286 86.3164ZM86.3848 82.5894C95.6459 82.5894 100.502 72.5377 100.502 57.5166C100.502 41.7049 95.9847 28.6038 85.8201 28.6038C76.5589 28.6038 71.8154 38.6555 71.8154 53.6766C71.8154 69.3753 76.3331 82.5894 86.3848 82.5894ZM85.8201 86.3164C69.3307 86.3164 58.3755 74.5706 58.3755 56.9519C58.3755 37.639 70.5731 24.8767 86.3848 24.8767C102.874 24.8767 113.829 36.7355 113.829 54.1284C113.829 73.5541 101.632 86.3164 85.8201 86.3164ZM129.503 51.9825C129.503 66.8906 136.506 76.9423 148.026 76.9423C155.367 76.9423 160.449 73.6671 164.176 68.02L165.87 68.8106C162.369 80.2176 154.576 86.3164 143.734 86.3164C128.826 86.3164 118.322 74.9094 118.322 57.6295C118.322 38.8814 129.277 24.8767 146.557 24.8767C157.287 24.8767 164.289 29.3944 164.289 37.3002C164.289 40.5755 162.595 43.2861 160.336 44.5284H152.882C153.108 43.0602 153.334 41.479 153.334 39.4461C153.334 33.799 151.414 28.7167 144.524 28.7167C135.15 28.7167 129.503 38.8814 129.503 51.9825ZM187.338 44.0766V76.1518C187.338 80.6694 189.935 81.46 197.164 81.9117V85.187H167.234V81.9117C172.881 81.5729 174.688 80.7823 174.688 76.6035V36.2837L167.573 32.3308V30.7497L185.87 24.8767H187.79L187.338 41.1402C193.211 29.2814 196.147 24.8767 202.698 24.8767C204.844 24.8767 206.425 25.6673 207.328 26.6838V36.8484H205.408C198.519 36.8484 193.437 37.3002 187.338 44.0766ZM230.129 78.6365C234.082 78.6365 237.018 76.8294 240.971 73.6671V52.4342L229.113 57.2907C223.804 59.3236 220.755 62.2601 220.755 68.3589C220.755 74.4577 223.804 78.6365 230.129 78.6365ZM253.621 42.7214V72.6506C253.621 77.1682 254.524 79.54 257.687 79.54C259.494 79.54 261.075 78.9753 262.543 78.2976L263.221 80.3306C260.284 84.2835 256.218 86.3164 251.475 86.3164C245.602 86.3164 242.101 82.4764 241.197 76.2647C237.357 80.8953 231.258 86.2035 223.353 86.2035C214.317 86.2035 208.557 80.5564 208.557 71.86C208.557 62.2601 215.56 58.3072 224.369 55.0319L240.971 48.9331V40.3496C240.971 33.2343 238.374 28.0391 231.597 28.0391C225.611 28.0391 223.127 32.2179 223.127 37.8649C223.127 39.8978 223.466 41.8178 224.03 44.1896L216.576 45.206C213.64 44.3025 211.833 42.0437 211.833 38.6555C211.833 29.7332 221.094 24.8767 232.953 24.8767C246.505 24.8767 253.621 30.2979 253.621 42.7214ZM280.372 11.6627V26.0061H295.845V30.6367H280.372V68.02C280.372 75.7 283.195 78.8623 289.068 78.8623C292.456 78.8623 294.828 77.8459 297.765 75.7L299.007 77.3941C295.732 82.2506 290.423 86.3164 282.969 86.3164C274.386 86.3164 267.835 81.6859 267.835 69.3753V30.6367H260.494V28.6038C267.496 25.1026 273.369 18.8909 277.661 11.6627H280.372ZM319.2 24.8767V76.6035C319.2 80.7823 321.007 81.5729 326.654 81.9117V85.187H299.097V81.9117C304.744 81.5729 306.551 80.7823 306.551 76.6035V36.2837L299.436 32.3308V30.7497L317.393 24.8767H319.2ZM312.537 16.858C307.906 16.858 304.518 13.2439 304.518 8.95212C304.518 4.54744 307.906 0.933337 312.537 0.933337C317.167 0.933337 320.669 4.54744 320.669 8.95212C320.669 13.2439 317.167 16.858 312.537 16.858ZM339.899 51.9825C339.899 66.8906 346.902 76.9423 358.422 76.9423C365.763 76.9423 370.845 73.6671 374.572 68.02L376.266 68.8106C372.765 80.2176 364.972 86.3164 354.13 86.3164C339.222 86.3164 328.718 74.9094 328.718 57.6295C328.718 38.8814 339.673 24.8767 356.953 24.8767C367.683 24.8767 374.685 29.3944 374.685 37.3002C374.685 40.5755 372.991 43.2861 370.732 44.5284H363.278C363.504 43.0602 363.73 41.479 363.73 39.4461C363.73 33.799 361.81 28.7167 354.92 28.7167C345.546 28.7167 339.899 38.8814 339.899 51.9825ZM400.541 78.6365C404.494 78.6365 407.431 76.8294 411.384 73.6671V52.4342L399.525 57.2907C394.217 59.3236 391.167 62.2601 391.167 68.3589C391.167 74.4577 394.217 78.6365 400.541 78.6365ZM424.033 42.7214V72.6506C424.033 77.1682 424.936 79.54 428.099 79.54C429.906 79.54 431.487 78.9753 432.955 78.2976L433.633 80.3306C430.696 84.2835 426.631 86.3164 421.887 86.3164C416.014 86.3164 412.513 82.4764 411.61 76.2647C407.77 80.8953 401.671 86.2035 393.765 86.2035C384.73 86.2035 378.97 80.5564 378.97 71.86C378.97 62.2601 385.972 58.3072 394.781 55.0319L411.384 48.9331V40.3496C411.384 33.2343 408.786 28.0391 402.01 28.0391C396.024 28.0391 393.539 32.2179 393.539 37.8649C393.539 39.8978 393.878 41.8178 394.443 44.1896L386.988 45.206C384.052 44.3025 382.245 42.0437 382.245 38.6555C382.245 29.7332 391.506 24.8767 403.365 24.8767C416.918 24.8767 424.033 30.2979 424.033 42.7214Z" fill="white"/>
</svg>
