<svg xmlns="http://www.w3.org/2000/svg" viewBox="0 0 215 215"><path fill="#fbf8ef" d="M0 0h215v215H0z"/><path d="M108.104 105.83c-4.473 0-7.178-2.912-6.97-7.441l1.04-21.244-18.83 12.94c-1.144.863-2.6 1.294-4.265 1.294-3.329 0-6.554-2.696-6.554-7.225 0-2.803 1.249-4.637 3.953-6.254l19.87-10.892-19.87-10.892c-2.704-1.51-3.953-3.45-3.953-6.254 0-4.422 3.225-7.118 6.554-7.118 1.665 0 3.121.432 4.266 1.187l18.829 12.617-1.04-22.107c-.208-4.53 2.497-7.441 6.97-7.441 4.265 0 6.762 2.696 6.658 7.44l-1.144 22.108 18.621-12.617c1.145-.755 2.601-1.187 4.266-1.187 3.329 0 6.554 2.696 6.554 7.118 0 2.803-1.249 4.745-3.954 6.254l-19.87 10.892 19.87 10.892c2.705 1.617 3.954 3.45 3.954 6.254 0 4.53-3.225 7.225-6.554 7.225-1.665 0-3.121-.43-4.266-1.294l-18.621-12.94 1.144 21.244c.208 4.745-2.393 7.441-6.658 7.441m-44.525 78.937c-4.474 0-7.178-2.911-6.97-7.44l1.04-21.245-18.83 12.941c-1.144.863-2.6 1.294-4.265 1.294-3.329 0-6.554-2.696-6.554-7.225 0-2.804 1.248-4.637 3.953-6.255l19.87-10.891-19.87-10.892c-2.705-1.51-3.953-3.451-3.953-6.255 0-4.421 3.225-7.117 6.554-7.117 1.664 0 3.12.431 4.265 1.186l18.83 12.617-1.04-22.107c-.209-4.529 2.496-7.44 6.97-7.44 4.265 0 6.762 2.696 6.658 7.44l-1.145 22.107 18.622-12.617c1.144-.755 2.6-1.186 4.265-1.186 3.33 0 6.554 2.696 6.554 7.117 0 2.804-1.248 4.745-3.953 6.255l-19.87 10.892 19.87 10.891c2.705 1.618 3.953 3.451 3.953 6.255 0 4.529-3.225 7.225-6.554 7.225-1.664 0-3.12-.431-4.265-1.294l-18.622-12.941 1.145 21.245c.208 4.744-2.393 7.44-6.658 7.44m89.467 0c-4.474 0-7.179-2.911-6.971-7.44l1.041-21.245-18.83 12.941c-1.144.863-2.601 1.294-4.265 1.294-3.329 0-6.554-2.696-6.554-7.225 0-2.804 1.248-4.637 3.953-6.255l19.87-10.891-19.87-10.892c-2.705-1.51-3.953-3.451-3.953-6.255 0-4.421 3.225-7.117 6.554-7.117 1.664 0 3.121.431 4.265 1.186l18.83 12.617-1.041-22.107c-.208-4.529 2.497-7.44 6.971-7.44 4.265 0 6.762 2.696 6.658 7.44l-1.145 22.107 18.622-12.617c1.144-.755 2.601-1.186 4.265-1.186 3.329 0 6.554 2.696 6.554 7.117 0 2.804-1.248 4.745-3.953 6.255l-19.87 10.892 19.87 10.891c2.705 1.618 3.953 3.451 3.953 6.255 0 4.529-3.225 7.225-6.554 7.225-1.664 0-3.121-.431-4.265-1.294l-18.622-12.941 1.145 21.245c.208 4.744-2.393 7.44-6.658 7.44"/></svg>