<svg width="24" height="24" viewBox="0 0 24 24" fill="none" xmlns="http://www.w3.org/2000/svg">
<path d="M21.1781 9.6375C20.8219 9.27188 20.4563 8.8875 20.3156 8.55938C20.175 8.23125 20.1844 7.74375 20.175 7.24688C20.1656 6.3375 20.1469 5.29688 19.425 4.575C18.7031 3.85313 17.6625 3.83438 16.7531 3.825C16.2563 3.81563 15.75 3.80625 15.4406 3.68438C15.1313 3.5625 14.7281 3.17813 14.3625 2.82188C13.7156 2.20313 12.975 1.5 12 1.5C11.025 1.5 10.2844 2.20313 9.6375 2.82188C9.27188 3.17813 8.8875 3.54375 8.55938 3.68438C8.23125 3.825 7.74375 3.81563 7.24688 3.825C6.3375 3.83438 5.29688 3.85313 4.575 4.575C3.85313 5.29688 3.83438 6.3375 3.825 7.24688C3.81563 7.74375 3.80625 8.25 3.68438 8.55938C3.5625 8.86875 3.17813 9.27188 2.82188 9.6375C2.20313 10.2844 1.5 11.025 1.5 12C1.5 12.975 2.20313 13.7156 2.82188 14.3625C3.17813 14.7281 3.54375 15.1125 3.68438 15.4406C3.825 15.7688 3.81563 16.2563 3.825 16.7531C3.83438 17.6625 3.85313 18.7031 4.575 19.425C5.29688 20.1469 6.3375 20.1656 7.24688 20.175C7.74375 20.1844 8.25 20.1938 8.55938 20.3156C8.86875 20.4375 9.27188 20.8219 9.6375 21.1781C10.2844 21.7969 11.025 22.5 12 22.5C12.975 22.5 13.7156 21.7969 14.3625 21.1781C14.7281 20.8219 15.1125 20.4563 15.4406 20.3156C15.7688 20.175 16.2563 20.1844 16.7531 20.175C17.6625 20.1656 18.7031 20.1469 19.425 19.425C20.1469 18.7031 20.1656 17.6625 20.175 16.7531C20.1844 16.2563 20.1938 15.75 20.3156 15.4406C20.4375 15.1313 20.8219 14.7281 21.1781 14.3625C21.7969 13.7156 22.5 12.975 22.5 12C22.5 11.025 21.7969 10.2844 21.1781 9.6375ZM16.6406 10.2938L11.1469 15.5438C11.0048 15.6774 10.8169 15.7512 10.6219 15.75C10.4298 15.7507 10.2449 15.6768 10.1063 15.5438L7.35938 12.9188C7.28319 12.8523 7.22123 12.7711 7.17722 12.6801C7.13321 12.589 7.10806 12.49 7.10328 12.389C7.0985 12.2881 7.11419 12.1871 7.14941 12.0924C7.18463 11.9976 7.23865 11.9109 7.30822 11.8375C7.37779 11.7642 7.46148 11.7056 7.55426 11.6654C7.64703 11.6252 7.74698 11.6042 7.84808 11.6036C7.94919 11.603 8.04937 11.6229 8.14261 11.662C8.23584 11.7011 8.32021 11.7587 8.39063 11.8313L10.6219 13.9594L15.6094 9.20625C15.7552 9.07902 15.9446 9.01309 16.1379 9.02223C16.3312 9.03138 16.5135 9.1149 16.6467 9.25533C16.7798 9.39576 16.8535 9.58223 16.8524 9.77575C16.8513 9.96928 16.7754 10.1549 16.6406 10.2938Z" fill="#649AEA"/>
</svg>
