<svg width="24" height="24" viewBox="0 0 24 24" fill="none" xmlns="http://www.w3.org/2000/svg">
<path d="M12 15.1875C13.7604 15.1875 15.1875 13.7604 15.1875 12C15.1875 10.2396 13.7604 8.8125 12 8.8125C10.2396 8.8125 8.8125 10.2396 8.8125 12C8.8125 13.7604 10.2396 15.1875 12 15.1875Z" stroke="#854F6F" stroke-width="2.17916" stroke-linecap="round" stroke-linejoin="round"/>
<path d="M16.5 3H7.5C5.01472 3 3 5.01472 3 7.5V16.5C3 18.9853 5.01472 21 7.5 21H16.5C18.9853 21 21 18.9853 21 16.5V7.5C21 5.01472 18.9853 3 16.5 3Z" stroke="#854F6F" stroke-width="2.17916" stroke-linecap="round" stroke-linejoin="round"/>
<path d="M18.3296 7.125C18.3296 7.92835 17.6784 8.5796 16.875 8.5796C16.0716 8.5796 15.4204 7.92835 15.4204 7.125C15.4204 6.32165 16.0716 5.6704 16.875 5.6704C17.6784 5.6704 18.3296 6.32165 18.3296 7.125Z" fill="#854F6F" stroke="#854F6F" stroke-width="0.0907984"/>
</svg>
