<svg width="24" height="24" viewBox="0 0 24 24" fill="none" xmlns="http://www.w3.org/2000/svg">
<path d="M11.9999 8.24997C11.9999 6.18747 13.7343 4.47185 15.7968 4.49997C16.5191 4.50831 17.2236 4.72509 17.8256 5.12423C18.4277 5.52338 18.9016 6.08792 19.1905 6.74997H22.4999L19.4718 9.7781C19.2764 12.8199 17.9298 15.6731 15.706 17.7576C13.4822 19.8421 10.548 21.0015 7.4999 21C4.4999 21 3.7499 19.875 3.7499 19.875C3.7499 19.875 6.7499 18.75 8.2499 16.5C8.2499 16.5 2.2499 13.5 3.7499 5.24997C3.7499 5.24997 7.4999 8.99997 11.9999 9.74997V8.24997Z" stroke="#649AEA" stroke-width="2.17916" stroke-linecap="round" stroke-linejoin="round"/>
</svg>
