<svg width="91" height="67" viewBox="0 0 91 67" fill="none" xmlns="http://www.w3.org/2000/svg">
<circle cx="45.2271" cy="20.9469" r="20.9469" fill="white"/>
<circle cx="45.2271" cy="20.9469" r="20.5845" stroke="black" stroke-opacity="0.19" stroke-width="0.724762"/>
<path d="M38.9961 6.77815C33.5561 5.31861 38.3835 16.5878 42.5376 20.2692C45.284 22.7031 56.4183 13.4928 54.6797 6.77819C52.9386 0.0543575 46.5127 8.79482 38.9961 6.77815Z" fill="#DC3322"/>
<path d="M47.4903 25.1584C44.6782 20.8316 51.3358 20.5863 55.7883 16.5788C58.3737 14.2518 59.6274 15.6127 61.4439 18.6107C63.499 22.0023 59.773 27.4987 57.4336 30.6901C54.6037 34.5507 50.1026 29.1777 47.4903 25.1584Z" fill="#88DCBE"/>
<path d="M47.4644 34.4734C49.6905 30.9118 45.539 23.8668 44.023 24.2711C40.5319 25.202 36.7915 35.1375 40.0632 38.1042C42.3659 40.1922 46.068 36.7077 47.4644 34.4734Z" fill="#FF9736"/>
<path d="M34.3895 30.2064C35.7433 29.4906 39.9754 25.8774 40.7434 23.3638C41.1892 21.9049 34.5292 11.9889 31.7363 12.7506C23.7952 14.9164 32.0847 20.5859 33.1327 23.9922C34.1808 27.3984 28.315 33.4182 34.3895 30.2064Z" fill="#171926"/>
<path d="M10.291 54.5906V59.6784C10.291 60.2328 10.3399 60.4448 10.9107 60.4774L11.302 60.4937V61.0645L8.10584 61.6352H7.63293L7.68185 60.0698C7.04588 60.8199 6.1816 61.6352 4.8118 61.6352C3.36046 61.6352 2.39834 60.8036 2.39834 58.9446V54.8189C2.39834 54.3133 2.28419 54.0198 1.69713 53.8893L1.45253 53.8404V53.286L4.66503 52.6174H5.10533L5.02379 54.6232V58.651C5.02379 59.5642 5.36624 60.1024 6.21421 60.1024C6.78496 60.1024 7.19264 59.8904 7.68185 59.6295V54.8189C7.68185 54.3133 7.5677 54.0198 6.98065 53.8893L6.73604 53.8404V53.286L9.93224 52.6174H10.3888L10.291 54.5906ZM21.8585 58.3738L23.4403 54.3623C23.5055 54.1829 23.5381 54.0035 23.5381 53.8893C23.5381 53.5143 23.212 53.4327 22.5597 53.3512V52.7642H25.3319V53.3512C24.7612 53.5143 24.647 53.6284 24.5003 53.9872L21.353 61.57H20.5213L18.5808 56.4006L16.363 61.57H15.5476L12.221 53.9872C12.0579 53.6284 11.9601 53.5143 11.3893 53.3512V52.7642H15.939V53.3512C15.3683 53.4327 15.091 53.5469 15.091 53.8567C15.091 54.0035 15.1236 54.1666 15.2052 54.3623L16.8685 58.5043L18.1731 55.3896L17.6349 53.9872C17.5208 53.6284 17.3577 53.4817 16.8685 53.3512V52.7642H21.3367V53.3512C20.6518 53.4327 20.3093 53.498 20.3093 53.9057C20.3093 54.0361 20.3419 54.1666 20.3909 54.3623L21.8585 58.3738ZM28.7197 61.6352C27.4152 61.6352 26.3715 61.3091 25.7029 60.8199L25.6051 58.6021H26.2737C26.6161 59.9719 27.4641 61.0156 28.7197 61.0156C29.5351 61.0156 30.1874 60.6079 30.1874 59.7925C30.1874 58.9283 29.5677 58.6347 28.361 58.2107C26.5835 57.6237 25.6377 56.8899 25.6377 55.3244C25.6377 53.5795 26.9422 52.6011 28.8339 52.6011C29.9101 52.6011 30.856 52.8783 31.5409 53.3186V55.2918H30.9212C30.6929 54.1666 29.9917 53.2208 28.8502 53.2208C28.0837 53.2208 27.5945 53.661 27.5945 54.3133C27.5945 55.0472 28.1001 55.3733 29.2742 55.781C31.1169 56.417 32.1605 57.0855 32.1605 58.7815C32.1605 60.5916 30.807 61.6352 28.7197 61.6352ZM36.3159 50.5953V52.7642H38.338V53.5795H36.3159V58.9772C36.3159 59.8741 36.6584 60.2491 37.3596 60.2491C37.7836 60.2491 38.1586 60.1024 38.55 59.8088L38.7783 60.135C38.2076 61.0482 37.3433 61.6352 36.1039 61.6352C34.7015 61.6352 33.6905 60.9177 33.6905 59.0424V53.5795H32.712V53.1229C33.9188 52.6174 34.995 51.6879 35.7615 50.5953H36.3159ZM42.8702 60.1839C43.2453 60.1839 43.5062 60.0371 43.865 59.7925V56.7594L42.7072 57.216C42.0712 57.4769 41.6635 57.8031 41.6635 58.7326C41.6635 59.5805 42.0223 60.1839 42.8702 60.1839ZM46.4578 55.357V59.6784C46.4578 60.1513 46.5394 60.4937 46.947 60.4937C47.1916 60.4937 47.4036 60.4285 47.5504 60.3633L47.6482 60.7547C47.159 61.3091 46.5067 61.6352 45.6588 61.6352C44.7456 61.6352 44.1259 61.1134 43.9139 60.2328C43.4084 60.9177 42.593 61.6026 41.4189 61.6026C40.0654 61.6026 39.1522 60.8036 39.1522 59.4501C39.1522 58.0314 40.147 57.4606 41.3374 57.0203L43.865 56.1234V54.6069C43.865 53.7589 43.6041 53.1718 42.8539 53.1718C42.1527 53.1718 41.8592 53.7263 41.8592 54.509C41.8592 54.8515 41.9081 55.1939 42.006 55.569L40.4405 55.781C39.9839 55.6342 39.674 55.2591 39.674 54.7047C39.674 53.286 41.1417 52.6011 43.0333 52.6011C45.2022 52.6011 46.4578 53.3349 46.4578 55.357ZM51.547 55.6179V60.0208C51.547 60.7057 51.9058 60.7873 52.8842 60.8851V61.4722H47.9595V60.8851C48.6607 60.8362 48.9216 60.7547 48.9216 60.2165V54.4601L47.9758 53.8893V53.5143L51.1231 52.6011H51.6123L51.547 55.0635C52.2646 53.2208 52.7864 52.6011 53.7811 52.6011C54.1399 52.6011 54.4008 52.7152 54.5476 52.8783V54.8678H54.2051C53.1778 54.8678 52.3298 54.9167 51.547 55.6179ZM58.4038 50.5953V52.7642H60.4259V53.5795H58.4038V58.9772C58.4038 59.8741 58.7463 60.2491 59.4475 60.2491C59.8715 60.2491 60.2465 60.1024 60.6379 59.8088L60.8662 60.135C60.2954 61.0482 59.4312 61.6352 58.1918 61.6352C56.7894 61.6352 55.7784 60.9177 55.7784 59.0424V53.5795H54.7999V53.1229C56.0067 52.6174 57.0829 51.6879 57.8494 50.5953H58.4038ZM69.8025 54.5906V59.6784C69.8025 60.2328 69.8514 60.4448 70.4222 60.4774L70.8136 60.4937V61.0645L67.6174 61.6352H67.1444L67.1934 60.0698C66.5574 60.8199 65.6931 61.6352 64.3233 61.6352C62.872 61.6352 61.9099 60.8036 61.9099 58.9446V54.8189C61.9099 54.3133 61.7957 54.0198 61.2086 53.8893L60.964 53.8404V53.286L64.1765 52.6174H64.6168L64.5353 54.6232V58.651C64.5353 59.5642 64.8778 60.1024 65.7257 60.1024C66.2965 60.1024 66.7042 59.8904 67.1934 59.6295V54.8189C67.1934 54.3133 67.0792 54.0198 66.4922 53.8893L66.2476 53.8404V53.286L69.4438 52.6174H69.9004L69.8025 54.5906ZM76.1631 60.9503C77.4513 60.9503 78.1851 59.4012 78.1851 57.428C78.1851 55.357 77.435 54.1666 76.0489 54.1666C75.6086 54.1666 75.1683 54.3296 74.8259 54.5906V59.1402C74.8259 60.2981 75.2172 60.9503 76.1631 60.9503ZM72.2167 63.6736V54.4601L71.2709 53.8893V53.5143L74.4182 52.6011H74.8911L74.8259 54.1503C75.3314 53.3838 76.2283 52.6011 77.5655 52.6011C79.5223 52.6011 80.8432 54.0035 80.8432 56.58C80.8432 59.8415 78.87 61.6352 76.3587 61.6352C75.7228 61.6352 75.152 61.5048 74.8259 61.2439V63.6084C74.8259 64.2118 75.1357 64.2607 76.1304 64.3422V64.9293H71.2383V64.3422C71.9558 64.2933 72.2167 64.2118 72.2167 63.6736ZM84.9348 61.6352C83.6302 61.6352 82.5865 61.3091 81.918 60.8199L81.8201 58.6021H82.4887C82.8312 59.9719 83.6791 61.0156 84.9348 61.0156C85.7501 61.0156 86.4024 60.6079 86.4024 59.7925C86.4024 58.9283 85.7827 58.6347 84.576 58.2107C82.7985 57.6237 81.8527 56.8899 81.8527 55.3244C81.8527 53.5795 83.1573 52.6011 85.0489 52.6011C86.1252 52.6011 87.071 52.8783 87.7559 53.3186V55.2918H87.1362C86.9079 54.1666 86.2067 53.2208 85.0652 53.2208C84.2988 53.2208 83.8096 53.661 83.8096 54.3133C83.8096 55.0472 84.3151 55.3733 85.4892 55.781C87.3319 56.417 88.3756 57.0855 88.3756 58.7815C88.3756 60.5916 87.0221 61.6352 84.9348 61.6352Z" fill="white"/>
</svg>
