<svg width="24" height="24" viewBox="0 0 24 24" fill="none" xmlns="http://www.w3.org/2000/svg">
<path d="M15.375 12L10.125 8.625V15.375L15.375 12Z" stroke="#C6482C" stroke-width="2.17916" stroke-linecap="round" stroke-linejoin="round"/>
<path d="M2.25 12C2.25 14.7937 2.54062 16.425 2.75625 17.2687C2.81571 17.4977 2.92813 17.7094 3.08447 17.8869C3.2408 18.0644 3.43666 18.2027 3.65625 18.2906C6.79688 19.4906 12 19.4625 12 19.4625C12 19.4625 17.2031 19.4906 20.3438 18.2906C20.5633 18.2027 20.7592 18.0644 20.9155 17.8869C21.0719 17.7094 21.1843 17.4977 21.2438 17.2687C21.4594 16.425 21.75 14.7937 21.75 12C21.75 9.20622 21.4594 7.57497 21.2438 6.73122C21.1843 6.50229 21.0719 6.29053 20.9155 6.11302C20.7592 5.93552 20.5633 5.79725 20.3438 5.70935C17.2031 4.50935 12 4.53747 12 4.53747C12 4.53747 6.79688 4.50935 3.65625 5.70935C3.43666 5.79725 3.2408 5.93552 3.08447 6.11302C2.92813 6.29053 2.81571 6.50229 2.75625 6.73122C2.54062 7.57497 2.25 9.20622 2.25 12Z" stroke="#C6482C" stroke-width="2.17916" stroke-linecap="round" stroke-linejoin="round"/>
</svg>
