<svg width="42" height="39" viewBox="0 0 42 39" fill="none" xmlns="http://www.w3.org/2000/svg">
<g style="mix-blend-mode:exclusion">
<path d="M20.8211 19.4867C19.6748 19.4867 18.9817 18.7669 19.035 17.6473L19.3016 12.3958L14.4766 15.5947C14.1833 15.8079 13.8101 15.9146 13.3836 15.9146C12.5306 15.9146 11.7042 15.2481 11.7042 14.1285C11.7042 13.4354 12.0241 12.9822 12.7172 12.5824L17.8087 9.88995L12.7172 7.19754C12.0241 6.82433 11.7042 6.3445 11.7042 5.6514C11.7042 4.55844 12.5306 3.892 13.3836 3.892C13.8101 3.892 14.1833 3.99863 14.4766 4.18524L19.3016 7.30417L19.035 1.83937C18.9817 0.719754 19.6748 0 20.8211 0C21.914 0 22.5538 0.666439 22.5271 1.83937L22.2339 7.30417L27.0056 4.18524C27.2988 3.99863 27.672 3.892 28.0986 3.892C28.9516 3.892 29.778 4.55844 29.778 5.6514C29.778 6.3445 29.4581 6.82433 28.765 7.19754L23.6734 9.88995L28.765 12.5824C29.4581 12.9822 29.778 13.4354 29.778 14.1285C29.778 15.2481 28.9516 15.9146 28.0986 15.9146C27.672 15.9146 27.2988 15.8079 27.0056 15.5947L22.2339 12.3958L22.5271 17.6473C22.5805 18.8202 21.914 19.4867 20.8211 19.4867ZM9.41162 39C8.26535 39 7.57225 38.2802 7.62557 37.1606L7.89214 31.9091L3.06712 35.108C2.77389 35.3213 2.40069 35.4279 1.97416 35.4279C1.12112 35.4279 0.294739 34.7614 0.294739 33.6418C0.294739 32.9487 0.614629 32.4956 1.30773 32.0957L6.39932 29.4033L1.30773 26.7109C0.614629 26.3377 0.294739 25.8578 0.294739 25.1647C0.294739 24.0718 1.12112 23.4053 1.97416 23.4053C2.40069 23.4053 2.77389 23.512 3.06712 23.6986L7.89214 26.8175L7.62557 21.3527C7.57225 20.2331 8.26535 19.5133 9.41162 19.5133C10.5046 19.5133 11.1444 20.1798 11.1177 21.3527L10.8245 26.8175L15.5962 23.6986C15.8894 23.512 16.2626 23.4053 16.6891 23.4053C17.5422 23.4053 18.3686 24.0718 18.3686 25.1647C18.3686 25.8578 18.0487 26.3377 17.3556 26.7109L12.264 29.4033L17.3556 32.0957C18.0487 32.4956 18.3686 32.9487 18.3686 33.6418C18.3686 34.7614 17.5422 35.4279 16.6891 35.4279C16.2626 35.4279 15.8894 35.3213 15.5962 35.108L10.8245 31.9091L11.1177 37.1606C11.171 38.3336 10.5046 39 9.41162 39ZM32.3371 39C31.1908 39 30.4977 38.2802 30.5511 37.1606L30.8176 31.9091L25.9926 35.108C25.6994 35.3213 25.3262 35.4279 24.8997 35.4279C24.0466 35.4279 23.2202 34.7614 23.2202 33.6418C23.2202 32.9487 23.5401 32.4956 24.2332 32.0957L29.3248 29.4033L24.2332 26.7109C23.5401 26.3377 23.2202 25.8578 23.2202 25.1647C23.2202 24.0718 24.0466 23.4053 24.8997 23.4053C25.3262 23.4053 25.6994 23.512 25.9926 23.6986L30.8176 26.8175L30.5511 21.3527C30.4977 20.2331 31.1908 19.5133 32.3371 19.5133C33.4301 19.5133 34.0699 20.1798 34.0432 21.3527L33.75 26.8175L38.5217 23.6986C38.8149 23.512 39.1881 23.4053 39.6146 23.4053C40.4677 23.4053 41.294 24.0718 41.294 25.1647C41.294 25.8578 40.9742 26.3377 40.2811 26.7109L35.1895 29.4033L40.2811 32.0957C40.9742 32.4956 41.294 32.9487 41.294 33.6418C41.294 34.7614 40.4677 35.4279 39.6146 35.4279C39.1881 35.4279 38.8149 35.3213 38.5217 35.108L33.75 31.9091L34.0432 37.1606C34.0965 38.3336 33.4301 39 32.3371 39Z" fill="black"/>
</g>
</svg>
