<svg width="2473" height="573" viewBox="0 0 2473 573" fill="none" xmlns="http://www.w3.org/2000/svg">
<path d="M2054.9 81.1918C2054.9 81.1918 2056.09 95.663 2053.64 101.438L2051.19 107.213L2055.7 112.154" fill="#706F6B"/>
<path d="M2054.9 81.1918C2054.9 81.1918 2056.09 95.663 2053.64 101.438L2051.19 107.213L2055.7 112.154" stroke="#CFCCC4" stroke-width="2.85566" stroke-linecap="round" stroke-linejoin="round"/>
<path d="M2040.16 75.9207C2040.16 75.9207 2031.01 87.4286 2028.37 93.135C2025.72 98.8413 2018.74 94.8619 2018.74 94.8619" fill="#706F6B"/>
<path d="M2040.16 75.9207C2040.16 75.9207 2031.01 87.4286 2028.37 93.135C2025.72 98.8413 2018.74 94.8619 2018.74 94.8619" stroke="#CFCCC4" stroke-width="2.85566" stroke-linecap="round" stroke-linejoin="round"/>
<path d="M2064.07 78.2559C2064.07 78.2559 2095.67 66.0283 2092.38 57.8773C2089.08 49.7264 2077.12 61.4748 2071.14 63.1382C2067.22 64.2792 2063.41 65.7741 2059.76 67.6045L2064.07 78.2559Z" fill="#706F6B" stroke="#706F6B" stroke-width="2.66138" stroke-linecap="round" stroke-linejoin="round"/>
<path d="M2035.27 67.9516C2035.27 67.9516 2018.61 38.455 2026.32 34.2438C2034.04 30.0326 2035.84 46.7031 2039.41 51.7848C2041.71 55.1532 2043.71 58.7244 2045.37 62.4544L2035.27 67.9516Z" fill="#706F6B" stroke="#706F6B" stroke-width="2.66138" stroke-linecap="round" stroke-linejoin="round"/>
<path d="M2041.08 71.1662C2041.08 71.1662 2072.68 58.9377 2069.38 50.7867C2066.09 42.6358 2054.13 54.3841 2048.14 56.0476C2044.22 57.1886 2040.42 58.6835 2036.77 60.5139L2041.08 71.1662Z" fill="#706F6B" stroke="#706F6B" stroke-width="2.66138" stroke-linecap="round" stroke-linejoin="round"/>
<path d="M2042.42 69.6089L2036.55 72.0133L2034.34 62.749L2042.13 59.1715L2042.42 69.6089Z" fill="#F3EEE0"/>
<path d="M2037.65 41.2725C2030.75 50.8363 2018.3 68.0966 2023.92 76.897C2026.74 81.3158 2031.34 79.2528 2045.22 85.1739C2059.23 91.1501 2061.16 96.3399 2065.88 94.8545C2076.6 91.4736 2077.98 70.4755 2078.92 56.0414C2079.95 40.4476 2081.67 15.8329 2071.35 12.1391C2061.27 8.53114 2045.57 30.2898 2037.65 41.2725Z" fill="#706F6B" stroke="#706F6B" stroke-width="2.85566" stroke-linecap="round" stroke-linejoin="round"/>
<path d="M2045.92 35.3867C2041.34 41.7312 2033.08 53.1817 2036.81 59.0199C2038.69 61.9513 2041.74 60.5827 2050.94 64.5108C2060.24 68.4753 2061.52 71.9182 2064.65 70.9328C2071.76 68.69 2072.68 54.7599 2073.3 45.1843C2073.98 34.8394 2075.13 18.5101 2068.28 16.0597C2061.59 13.6661 2051.17 28.1008 2045.92 35.3867Z" fill="#FBF8EF" stroke="#F3EEE0" stroke-width="3.05616" stroke-linecap="round" stroke-linejoin="round"/>
<path d="M2066.61 40.9303C2065.2 40.4265 2064.47 38.8767 2064.98 37.4687C2065.48 36.0607 2067.03 35.3277 2068.44 35.8315C2069.84 36.3353 2070.58 37.8851 2070.07 39.2931C2069.57 40.7011 2068.02 41.4341 2066.61 40.9303Z" fill="#706F6B"/>
<path d="M2056.07 37.1578C2054.66 36.654 2053.93 35.1043 2054.43 33.6963C2054.93 32.2883 2056.48 31.5552 2057.89 32.059C2059.3 32.5628 2060.03 34.1126 2059.53 35.5206C2059.03 36.9286 2057.48 37.6616 2056.07 37.1578Z" fill="#706F6B"/>
<path d="M2061.96 43.3148C2061.96 43.3148 2063.97 39.9842 2061.43 39.0746C2058.88 38.165 2057.6 41.7547 2057.6 41.7547" fill="#706F6B"/>
<path d="M2177.33 210.229C2177.33 210.229 2183.87 253.152 2195.01 268.249L2206.16 283.346L2196.45 300.847" stroke="#CFCCC4" stroke-width="2.85566" stroke-linecap="round" stroke-linejoin="round"/>
<path d="M2216.53 184.687C2216.53 184.687 2251.13 211.818 2262.78 226.584C2274.43 241.349 2291.99 224.933 2291.99 224.933" stroke="#CFCCC4" stroke-width="2.85566" stroke-linecap="round" stroke-linejoin="round"/>
<path d="M2166.73 196.787C2166.73 196.787 2065.21 185.673 2069.84 159.767C2074.47 133.861 2117.4 158.511 2136.21 158.743C2148.57 159.043 2160.82 160.443 2172.81 162.927L2166.73 196.787Z" fill="#706F6B" stroke="#706F6B" stroke-width="2.66138" stroke-linecap="round" stroke-linejoin="round"/>
<path d="M2196.42 160.91C2196.42 160.91 2208.89 78.8546 2188.32 70.3613C2167.74 61.8681 2177.57 105.81 2173.87 120.169C2171.56 129.668 2170.1 139.596 2169.51 149.828L2196.42 160.91Z" fill="#706F6B" stroke="#706F6B" stroke-width="2.66138" stroke-linecap="round" stroke-linejoin="round"/>
<path d="M2202.39 181.406C2202.39 181.406 2140.53 172.98 2142.95 156.964C2145.38 140.947 2171.84 156.897 2183.27 157.323C2190.79 157.694 2198.25 158.748 2205.57 160.47L2202.39 181.406Z" fill="#706F6B" stroke="#706F6B" stroke-width="2.66138" stroke-linecap="round" stroke-linejoin="round"/>
<path d="M2199.32 179.188L2210.87 180.989L2210.87 163.441L2195.38 160.356L2199.32 179.188Z" fill="#F3EEE0"/>
<path d="M2195.78 126.358C2212.23 140.553 2241.91 166.175 2235.6 184.349C2232.42 193.475 2223.3 191.742 2200.95 208.281C2178.38 224.978 2177.15 235.103 2168.05 234.455C2147.39 232.975 2135.95 195.925 2128.1 170.457C2119.6 142.943 2106 99.5601 2122.92 88.5309C2139.46 77.7577 2176.89 110.054 2195.78 126.358Z" fill="#706F6B" stroke="#706F6B" stroke-width="2.85566" stroke-linecap="round" stroke-linejoin="round"/>
<path d="M2189.8 130.901C2203.23 142.488 2227.46 163.403 2222.3 178.238C2219.71 185.688 2212.26 184.273 2194.02 197.774C2175.6 211.404 2174.59 219.668 2167.17 219.14C2150.3 217.931 2140.97 187.688 2134.55 166.898C2127.62 144.439 2116.51 109.026 2130.33 100.023C2143.83 91.2286 2174.38 117.592 2189.8 130.901Z" fill="#F3EEE0"/>
<path d="M2172.47 143.724C2181.89 156.55 2198.88 179.697 2195.63 190.961C2193.99 196.616 2188.86 193.71 2176.62 200.834C2164.25 208.024 2163.72 214.728 2158.62 212.572C2147.04 207.665 2140.08 180.125 2135.3 161.193C2130.13 140.74 2121.86 108.451 2131.15 104.082C2140.24 99.8141 2161.66 128.995 2172.47 143.724Z" fill="#FBF8EF" stroke="#F3EEE0" stroke-width="3.05616" stroke-linecap="round" stroke-linejoin="round"/>
<path d="M2139.75 134.105C2142.5 133.883 2144.54 131.476 2144.32 128.73C2144.1 125.983 2141.69 123.937 2138.95 124.159C2136.2 124.381 2134.15 126.787 2134.38 129.533C2134.6 132.28 2137 134.326 2139.75 134.105Z" fill="#706F6B"/>
<path d="M2160.32 132.443C2163.06 132.221 2165.11 129.815 2164.89 127.069C2164.67 124.322 2162.26 122.276 2159.51 122.497C2156.77 122.719 2154.72 125.126 2154.94 127.872C2155.17 130.619 2157.57 132.665 2160.32 132.443Z" fill="#706F6B"/>
<path d="M2146.89 140.577C2146.89 140.577 2144.91 133.688 2149.87 133.287C2154.83 132.887 2155.4 139.89 2155.4 139.89" fill="#706F6B"/>
<path d="M143.62 572.447C84.3039 572.447 33.369 554.395 5.00029 530.539L0.487077 420.288H23.0531C37.8823 500.881 78.5012 549.237 143.62 549.237C200.358 549.237 234.529 516.999 234.529 469.933C234.529 418.998 206.161 399.011 124.923 366.774C54.6456 339.05 5.00029 308.102 5.00029 232.667C5.00029 160.456 59.8036 106.942 146.844 106.942C199.068 106.942 246.135 121.126 278.372 144.337V240.404H257.095C246.779 168.837 208.74 130.153 146.844 130.153C98.4882 130.153 69.4747 160.456 69.4747 203.009C69.4747 250.72 92.6855 269.418 163.607 297.142C250.648 331.958 299.648 364.84 299.648 440.92C299.648 526.026 228.727 572.447 143.62 572.447ZM489.888 551.171C542.757 551.171 570.481 493.789 570.481 408.038C570.481 317.773 544.692 242.983 486.665 242.983C433.796 242.983 406.716 300.365 406.716 386.116C406.716 475.736 432.506 551.171 489.888 551.171ZM486.665 572.447C392.532 572.447 329.992 505.394 329.992 404.814C329.992 294.563 399.624 221.706 489.888 221.706C584.021 221.706 646.561 289.405 646.561 388.695C646.561 499.591 576.929 572.447 486.665 572.447ZM736.04 376.445C736.04 461.551 776.014 518.934 841.778 518.934C883.686 518.934 912.7 500.236 933.976 467.999L943.647 472.512C923.66 537.631 879.173 572.447 817.277 572.447C732.171 572.447 672.21 507.328 672.21 408.682C672.21 301.655 734.75 221.706 833.396 221.706C894.647 221.706 934.621 247.496 934.621 292.628C934.621 311.326 924.95 326.8 912.055 333.892H869.502C870.791 325.51 872.081 316.484 872.081 304.879C872.081 272.641 861.12 243.628 821.791 243.628C768.277 243.628 736.04 301.655 736.04 376.445ZM1066.2 331.313V514.42C1066.2 540.21 1081.03 544.723 1122.29 547.302V566H951.435V547.302C983.672 545.368 993.988 540.855 993.988 516.999V286.826L953.369 264.26V255.233L1057.82 221.706H1068.78L1066.2 314.55C1099.73 246.852 1116.49 221.706 1153.88 221.706C1166.13 221.706 1175.16 226.22 1180.32 232.022V290.049H1169.36C1130.03 290.049 1101.02 292.628 1066.2 331.313ZM1310.48 528.605C1333.05 528.605 1349.81 518.289 1372.38 500.236V379.024L1304.68 406.748C1274.38 418.354 1256.97 435.117 1256.97 469.933C1256.97 504.749 1274.38 528.605 1310.48 528.605ZM1444.59 323.576V494.433C1444.59 520.223 1449.75 533.763 1467.8 533.763C1478.12 533.763 1487.14 530.539 1495.52 526.671L1499.39 538.276C1482.63 560.842 1459.42 572.447 1432.34 572.447C1398.81 572.447 1378.82 550.526 1373.67 515.065C1351.75 541.5 1316.93 571.803 1271.8 571.803C1220.22 571.803 1187.34 539.565 1187.34 489.92C1187.34 435.117 1227.31 412.551 1277.6 393.853L1372.38 359.037V310.036C1372.38 269.418 1357.55 239.759 1318.86 239.759C1284.69 239.759 1270.51 263.615 1270.51 295.852C1270.51 307.457 1272.44 318.418 1275.67 331.958L1233.11 337.76C1216.35 332.603 1206.03 319.708 1206.03 300.365C1206.03 249.43 1258.9 221.706 1326.6 221.706C1403.97 221.706 1444.59 252.654 1444.59 323.576ZM1597.3 146.271V228.154H1685.63V254.588H1597.3V467.999C1597.3 511.841 1613.42 529.894 1646.95 529.894C1666.29 529.894 1679.83 524.092 1696.59 511.841L1703.69 521.513C1684.99 549.237 1654.68 572.447 1612.13 572.447C1563.13 572.447 1525.74 546.013 1525.74 475.736V254.588H1483.83V242.983C1523.8 222.996 1557.33 187.535 1581.83 146.271H1597.3ZM1818.96 221.706V516.999C1818.96 540.855 1829.28 545.368 1861.52 547.302V566H1704.2V547.302C1736.44 545.368 1746.75 540.855 1746.75 516.999V286.826L1706.13 264.26V255.233L1808.65 221.706H1818.96ZM1780.92 175.93C1754.49 175.93 1735.15 155.298 1735.15 130.798C1735.15 105.652 1754.49 85.0207 1780.92 85.0207C1807.36 85.0207 1827.35 105.652 1827.35 130.798C1827.35 155.298 1807.36 175.93 1780.92 175.93ZM1937.13 376.445C1937.13 461.551 1977.1 518.934 2042.87 518.934C2084.77 518.934 2113.79 500.236 2135.06 467.999L2144.74 472.512C2124.75 537.631 2080.26 572.447 2018.37 572.447C1933.26 572.447 1873.3 507.328 1873.3 408.682C1873.3 301.655 1935.84 221.706 2034.48 221.706C2095.74 221.706 2135.71 247.496 2135.71 292.628C2135.71 311.326 2126.04 326.8 2113.14 333.892H2070.59C2071.88 325.51 2073.17 316.484 2073.17 304.879C2073.17 272.641 2062.21 243.628 2022.88 243.628C1969.37 243.628 1937.13 301.655 1937.13 376.445ZM2283.32 528.605C2305.88 528.605 2322.64 518.289 2345.21 500.236V379.024L2277.51 406.748C2247.21 418.354 2229.8 435.117 2229.8 469.933C2229.8 504.749 2247.21 528.605 2283.32 528.605ZM2417.42 323.576V494.433C2417.42 520.223 2422.58 533.763 2440.63 533.763C2450.95 533.763 2459.98 530.539 2468.36 526.671L2472.23 538.276C2455.46 560.842 2432.25 572.447 2405.17 572.447C2371.65 572.447 2351.66 550.526 2346.5 515.065C2324.58 541.5 2289.76 571.803 2244.63 571.803C2193.05 571.803 2160.17 539.565 2160.17 489.92C2160.17 435.117 2200.14 412.551 2250.43 393.853L2345.21 359.037V310.036C2345.21 269.418 2330.38 239.759 2291.7 239.759C2257.53 239.759 2243.34 263.615 2243.34 295.852C2243.34 307.457 2245.28 318.418 2248.5 331.958L2205.95 337.76C2189.18 332.603 2178.87 319.708 2178.87 300.365C2178.87 249.43 2231.74 221.706 2299.43 221.706C2376.8 221.706 2417.42 252.654 2417.42 323.576Z" fill="#FBF8EF"/>
</svg>
