<svg xmlns="http://www.w3.org/2000/svg" width="32" height="32" viewBox="0 0 215 215"><path fill="currentColor" d="M107.76 89.7c-3.729 0-5.985-2.428-5.811-6.205l.867-17.712-15.699 10.79c-.954.719-2.168 1.078-3.556 1.078-2.776 0-5.464-2.248-5.464-6.024 0-2.337 1.04-3.866 3.296-5.215l16.566-9.08-16.566-9.081c-2.256-1.259-3.296-2.877-3.296-5.215 0-3.686 2.688-5.934 5.464-5.934 1.388 0 2.602.36 3.556.989l15.699 10.52-.867-18.432c-.174-3.776 2.082-6.204 5.811-6.204 3.556 0 5.638 2.248 5.551 6.204l-.954 18.431 15.526-10.519c.954-.63 2.168-.989 3.556-.989 2.775 0 5.464 2.248 5.464 5.934 0 2.338-1.041 3.956-3.296 5.215l-16.566 9.08 16.566 9.081c2.255 1.35 3.296 2.878 3.296 5.215 0 3.776-2.689 6.024-5.464 6.024-1.388 0-2.602-.36-3.556-1.079l-15.526-10.789.954 17.712c.174 3.956-1.995 6.204-5.551 6.204M160.052 180.275c-3.73 0-5.985-2.428-5.812-6.204l.868-17.712-15.699 10.789c-.954.719-2.169 1.079-3.556 1.079-2.776 0-5.465-2.248-5.465-6.024 0-2.338 1.041-3.866 3.296-5.215l16.567-9.081-16.567-9.081c-2.255-1.258-3.296-2.877-3.296-5.214 0-3.687 2.689-5.934 5.465-5.934 1.387 0 2.602.359 3.556.989l15.699 10.519-.868-18.431c-.173-3.777 2.082-6.204 5.812-6.204 3.556 0 5.638 2.248 5.551 6.204l-.954 18.431 15.525-10.519c.954-.63 2.169-.989 3.557-.989 2.775 0 5.464 2.247 5.464 5.934 0 2.337-1.041 3.956-3.296 5.214l-16.567 9.081 16.567 9.081c2.255 1.349 3.296 2.877 3.296 5.215 0 3.776-2.689 6.024-5.464 6.024-1.388 0-2.603-.36-3.557-1.079l-15.525-10.789.954 17.712c.173 3.956-1.995 6.204-5.551 6.204M55.469 180.275c-3.73 0-5.985-2.428-5.812-6.204l.868-17.712-15.7 10.789c-.954.719-2.168 1.079-3.556 1.079-2.775 0-5.464-2.248-5.464-6.024 0-2.338 1.04-3.866 3.296-5.215l16.566-9.081-16.566-9.081c-2.255-1.258-3.296-2.877-3.296-5.214 0-3.687 2.689-5.934 5.464-5.934 1.388 0 2.602.359 3.557.989l15.699 10.519-.868-18.431c-.173-3.777 2.082-6.204 5.812-6.204 3.556 0 5.637 2.248 5.55 6.204l-.953 18.431 15.525-10.519c.954-.63 2.169-.989 3.556-.989 2.776 0 5.465 2.247 5.465 5.934 0 2.337-1.041 3.956-3.296 5.214l-16.567 9.081 16.567 9.081c2.255 1.349 3.296 2.877 3.296 5.215 0 3.776-2.69 6.024-5.465 6.024-1.387 0-2.602-.36-3.556-1.079l-15.525-10.789.954 17.712c.173 3.956-1.995 6.204-5.551 6.204"/><path stroke="currentColor" stroke-linecap="round" stroke-width="13" d="M122.795 172.359c-9.751 4.26-20.018 4.26-29.769 0M52.362 101.926a57.5 57.5 0 0 1 14.884-25.78M148.575 76.146a57.5 57.5 0 0 1 14.884 25.78"/></svg>